<?xml version="1.0" encoding="utf-8"?>
<!-- Generator: Adobe Illustrator 16.0.0, SVG Export Plug-In . SVG Version: 6.00 Build 0)  -->
<!DOCTYPE svg PUBLIC "-//W3C//DTD SVG 1.1//EN" "http://www.w3.org/Graphics/SVG/1.1/DTD/svg11.dtd">
<svg version="1.1" id="Layer_1" xmlns="http://www.w3.org/2000/svg" xmlns:xlink="http://www.w3.org/1999/xlink" x="0px" y="0px"
	 width="162.109px" height="145.778px" viewBox="18.65 25.083 162.109 145.778"
	 enable-background="new 18.65 25.083 162.109 145.778" xml:space="preserve">
<rect display="none" fill="#5D5D5D" width="200" height="182"/>
<g>
	<path fill="#383C45" d="M180.76,47.221c-2.902,6.993-10.744,24.677-12.125,28.31c-0.648,1.718-1.557,2.17-3.254,2.043
		c-3.578-0.269-14.027-0.448-15.514,0.032c0.162,1.021,2.994,89.981,2.891,90.717c-0.156,1.117-1.064,2.049-1.82,2.133
		c-0.854,0.098-67.9,0.633-100.39,0.6c-3.415,0.004-4.18-1.402-4.18-5.232c0.64-21.15,2.354-87.209,2.296-87.992
		c-3.062-0.671-8.878-0.425-12.256-0.287c-2.098,0.085-5.169,0.191-6.511-2.873c-0.861-2.105-6.986-16.502-10.627-25.086
		c-0.666-1.574-1.144-3.016,0.472-3.755c11.348-5.188,21.133-10.006,32.58-14.974c3.549-1.54,24.065-4.757,30.35-5.748
		c0.705-0.111,1.503,0.169,2.224,0.385c2.572,0.772,5.104,2.167,7.698,2.281c5.598,0.249,11.231-0.07,16.839-0.343
		c1.287-0.063,2.688-0.667,3.776-1.401c1.463-0.988,2.817-1.078,4.498-0.774c8.51,1.542,17.088,2.569,25.584,4.158
		c2.086,0.39,3.414,1.337,5.362,2.234C159.098,36.442,179.787,46.731,180.76,47.221z M144.162,31.969
		c-8.027-1.354-15.891-2.68-23.305-3.929c-1.66,3.745-2.854,7.288-4.699,10.447c-5.719,9.774-16.542,10.938-24.243,7.965
		c-6.455-2.496-9.86-7.763-12.084-13.974c-0.513-1.432-0.895-2.911-1.371-4.487c-7.936,1.347-15.75,2.677-23.625,4.016
		c1.814,6.531,2.476,12.772,2.141,19.115c-0.485,9.081-2.492,17.839-5.621,26.359c-0.247,0.683-0.447,1.422-0.47,2.139
		c-0.105,3.338-0.112,6.68-0.204,10.019c-0.697,25.542-1.404,51.079-2.106,76.618c-0.018,0.658-0.003,1.316-0.003,2.119
		c34.094,0.758,67.959,0.799,101.967-0.02c0-0.758,0.012-1.301,0-1.84c-0.195-8.354-0.361-16.703-0.6-25.053
		c-0.563-19.852-1.131-39.697-1.781-59.547c-0.068-2.048-0.471-4.156-1.119-6.103C142.313,61.608,140.156,47.247,144.162,31.969z
		 M149.104,75.622c1.545-0.236,2.879-0.365,4.211-0.331c3.775,0.101,7.555,0.068,11.314,0.339c1.268,0.091,1.955-0.184,2.492-1.487
		c2.852-6.908,5.84-13.756,8.752-20.633c0.787-1.854,1.482-3.743,2.266-5.718c-10.791-5.005-21.422-9.938-32.061-14.875
		C142.211,43.899,143.68,61.81,149.104,75.622z M50.102,75.549c4.614-13.646,7.067-27.835,3.021-42.67
		c-10.892,5.06-21.506,9.989-32.258,14.985c3.876,9.108,7.618,17.974,11.462,26.796c0.215,0.493,1.215,0.936,1.835,0.917
		c3.643-0.112,7.282-0.446,10.924-0.539C46.679,74.999,48.282,75.353,50.102,75.549z M113.846,28.748
		c-9.676,2.113-19.213,2.247-28.732-0.103c1.012,7.2,6.57,12.932,12.969,13.282C106.158,42.37,111.414,37.981,113.846,28.748z
		 M115.945,27.212c-1.096,2.933-1.93,6.293-3.482,8.983c-3.354,5.783-9.027,8.269-15.594,7.241
		c-6.236-0.979-9.843-5.036-12.161-10.51c-0.758-1.791-1.239-3.697-1.885-5.668c-0.817,0.183-1.566,0.354-2.307,0.521
		c2.431,12.195,9.905,18.83,20.243,18.146c9.042-0.596,16.122-8.749,17.958-18.299C118.018,27.516,116.422,27.284,115.945,27.212z"
		/>
</g>
<text transform="matrix(1 0 0 1 91.2583 163.9395)" fill="#383C45" font-family="'ArialMT'" font-size="10.1504">Width</text>
<g>
	<text transform="matrix(1 0 0 1 75.5776 103.3984)" fill="#383C45" font-family="'ArialMT'" font-size="10.1504">Height</text>
</g>
<g>
	<g>
		<rect x="56.459" y="150.089" fill="#383C45" width="86.49" height="1.27"/>
	</g>
	<polygon fill="#383C45" points="140.006,147.876 144.934,150.722 140.006,153.569 	"/>
	<polygon fill="#383C45" points="59.6,153.569 54.671,150.722 59.6,147.876 	"/>
</g>
<g>
	<g>
		<rect x="67.457" y="40.134" fill="#383C45" width="1.268" height="122.018"/>
	</g>
	<polygon fill="#383C45" points="65.243,43.078 68.089,38.147 70.935,43.078 	"/>
	<polygon fill="#383C45" points="70.935,159.007 68.089,163.94 65.243,159.007 	"/>
</g>
<g display="none">
	<text transform="matrix(1 0 0 1 98.1763 155.6113)" display="inline" fill="#FFFFFF" font-family="'ArialMT'" font-size="10.1504">a</text>
	<g display="inline">
		<text transform="matrix(1 0 0 1 79.4956 101.0703)" fill="#FFFFFF" font-family="'ArialMT'" font-size="10.1504">b</text>
	</g>
	<g display="inline">
		<g>
			<rect x="60.377" y="143.76" fill="#FFFFFF" width="79.49" height="1.271"/>
		</g>
		<polygon fill="#FFFFFF" points="136.924,141.548 141.852,144.393 136.924,147.238 		"/>
		<polygon fill="#FFFFFF" points="63.518,147.238 58.589,144.393 63.518,141.548 		"/>
	</g>
	<g display="inline">
		<g>
			<rect x="74.067" y="22.805" fill="#FFFFFF" width="1.268" height="137.015"/>
		</g>
		<polygon fill="#FFFFFF" points="71.853,25.75 74.7,20.819 77.545,25.75 		"/>
		<polygon fill="#FFFFFF" points="77.545,156.68 74.7,161.609 71.853,156.68 		"/>
	</g>
	<path display="inline" fill="none" stroke="#FFFFFF" stroke-width="2" stroke-miterlimit="10" d="M99.498,167.689
		c-13.244,0-28.473,0.004-48.255,0.004c-0.133-16.471-0.116-42.084-0.293-58.555c-0.126-11.828-0.527-23.657-0.636-35.486
		c-0.012-1.389,0.688-3.354,1.681-4.096c8.066-6.021,11.503-14.816,13.282-24.635c1.462-8.072,1.219-16.19,0.257-24.306
		c-0.129-1.095-0.251-2.193-0.358-3.292c-0.227-2.31,0.916-3.439,2.923-3.482c3.941-0.083,7.888-0.076,11.83-0.002
		c2.439,0.045,3.063,1.798,3.126,4.085c0.217,7.879,1.159,15.644,4.087,22.948c2.04,5.093,4.721,9.709,10.383,10.894
		c4.993,1.045,8.825-1.104,11.709-5.324c3.767-5.508,5.236-11.948,6.132-18.55c0.459-3.371,0.735-6.786,0.856-10.19
		c0.103-2.826,1.295-3.955,3.858-3.897c3.379,0.076,6.76-0.023,10.14,0.006c3.362,0.029,3.987,1.006,3.848,4.605
		c-0.301,7.601-0.899,15.244-0.471,22.81c0,18.924,10.5,25.939,11.385,26.387c4.086,2.063,4.201,5.756,4.093,9.87
		c-0.39,14.661-0.664,29.321-0.849,43.986c-0.172,13.253-0.127,33.093-0.205,46.222C126.814,167.693,113.115,167.689,99.498,167.689
		z"/>
</g>
<g display="none">
	<text transform="matrix(1 0 0 1 98.1646 158.3945)" display="inline" fill="#FFFFFF" font-family="'ArialMT'" font-size="9.7559">a</text>
	<g display="inline">
		<text transform="matrix(1 0 0 1 76.3667 99.2441)" fill="#FFFFFF" font-family="'ArialMT'" font-size="9.7559">b</text>
	</g>
	<g display="inline">
		<g>
			<rect x="62.275" y="147.928" fill="#FFFFFF" width="74.858" height="1.219"/>
		</g>
		<polygon fill="#FFFFFF" points="135.727,145.801 140.464,148.536 135.727,151.271 		"/>
		<polygon fill="#FFFFFF" points="65.294,151.271 60.558,148.536 65.294,145.801 		"/>
	</g>
	<g display="inline">
		<g>
			<rect x="69.522" y="39.401" fill="#FFFFFF" width="1.219" height="117.273"/>
		</g>
		<polygon fill="#FFFFFF" points="67.395,42.23 70.131,37.492 72.866,42.23 		"/>
		<polygon fill="#FFFFFF" points="72.866,153.654 70.131,158.393 67.395,153.654 		"/>
	</g>
	<path display="inline" fill="#FFFFFF" d="M139.771,110.729c0.313,4.043,0.592,8.09,0.953,12.129
		c0.809,8.99,1.734,17.97,2.438,26.966c0.189,2.466-0.234,4.979-0.407,7.469c-0.026,0.419-0.096,0.923-0.343,1.218
		c-1.936,2.287-1.539,5.021-1.439,7.648c0.051,1.32-0.509,1.953-1.549,2.563c-5.686,3.334-11.902,5.032-18.359,5.82
		c-14.666,1.781-29.34,1.814-43.982-0.326c-5.832-0.852-11.408-2.551-16.577-5.479c-1.133-0.639-1.771-1.344-1.602-2.721
		c0.116-0.964,0.153-1.974-0.009-2.921c-0.212-1.262-0.673-2.479-0.98-3.729c-0.42-1.701-1.148-3.421-1.126-5.124
		c0.059-4.611,0.294-9.233,0.728-13.823c0.988-10.498,2.137-20.979,2.822-31.543c-0.194,0.653-0.414,1.299-0.578,1.958
		c-2.189,8.75-4.557,17.459-6.473,26.268c-1.073,4.922-1.39,10.01-2.051,15.021c-0.297,2.234-0.586,4.477-0.91,6.706
		c-0.384,2.673-2.045,4.224-4.549,4.912c-0.88,0.245-1.306,0.634-1.356,1.588c-0.071,1.338-0.385,2.662-0.438,4
		c-0.049,1.155-0.522,1.698-1.659,1.608c-3.817-0.313-7.634-0.646-11.45-0.963c-1.076-0.093-1.485-0.662-1.333-1.713
		c0.062-0.422-0.031-0.869,0.062-1.279c0.6-2.58,0.267-4.479-2.164-6.363c-2.689-2.083-3.081-5.674-3.441-8.987
		c-0.794-7.313,0.485-14.487,1.605-21.651c2.083-13.313,4.144-26.633,6.534-39.894c2.444-13.541,4.822-27.144,10.607-39.794
		c1.822-3.979,3.928-7.843,6.133-11.626c2.13-3.654,5.354-6.047,9.412-7.427c3.273-1.113,6.436-2.549,9.741-3.88
		c-0.883-1.835-0.163-2.971,0.968-4.216c1.294-1.425,2.44-3.06,3.304-4.779c1.449-2.879,3.785-4.571,6.659-5.649
		c1.686-0.633,3.447-1.068,5.58-1.716c0.162,3,0.307,5.646,0.445,8.213c2.813,1.487,5.905,2.891,8.748,4.687
		c2.875,1.815,5.031,4.396,6.142,8.072c2.921-7.222,8.679-10.416,14.991-12.311c0.171-2.943,0.326-5.634,0.494-8.56
		c5.449,1.264,10.156,2.731,12.68,7.918c0.807,1.66,2.283,2.981,3.275,4.566c0.613,0.977,0.893,2.162,1.322,3.253
		c-0.174,0.127-0.347,0.254-0.521,0.381c2.687,1.139,5.296,2.531,8.069,3.367c5.902,1.774,9.805,5.696,12.688,10.898
		c5.396,9.727,9.104,20.087,11.336,30.954c2.071,10.077,4.103,20.169,5.772,30.319c2.184,13.234,4.102,26.515,5.912,39.806
		c0.605,4.457,0.49,8.996-0.826,13.404c-0.774,2.59-1.996,4.813-4.391,6.301c-0.416,0.26-0.686,1.073-0.683,1.631
		c0.008,1.521,0.3,3.045,0.255,4.561c-0.014,0.501-0.669,1.363-1.104,1.411c-3.924,0.433-7.864,0.729-11.801,1.046
		c-0.984,0.076-1.461-0.42-1.429-1.426c0.015-0.424-0.062-0.85-0.093-1.275c-0.182-2.359-0.235-4.609-3.395-5.275
		c-1.636-0.345-2.525-2.012-2.76-3.78c-0.783-5.986-1.259-12.03-2.408-17.941c-1.556-8.008-3.613-15.918-5.479-23.862
		c-0.521-2.233-1.135-4.449-1.704-6.672C139.982,110.697,139.875,110.713,139.771,110.729z M97.322,35.223
		c-0.033,0.372-0.094,0.731-0.086,1.089c0.224,9.502,0.475,19.003,0.659,28.506c0.021,1.069-0.324,2.146-0.497,3.22
		c-0.126-0.02-0.252-0.039-0.377-0.058C96.804,56.99,96.586,46,96.37,35.072c-4.519-1.551-8.99-3.37-13.621-4.596
		c-4.571-1.211-9.286-2.336-13.97-2.49c-2.55-0.083-5.164,1.941-7.761,2.993c-1.41,0.573-2.864,1.049-4.255,1.668
		c-1.202,0.537-2.339,1.214-3.552,1.855c1.045,2.586,2.033,4.938,2.957,7.314c6.061,15.583,8.877,31.653,7.144,48.384
		c-0.585,5.64-1.362,11.26-1.914,16.903c-0.782,7.953-1.407,15.922-2.152,23.881c-0.356,3.807-0.835,7.603-1.285,11.658
		c0.993-0.326,1.688-0.521,2.36-0.777c9.744-3.723,16.177-10.653,19.592-20.418c0.522-1.494,1.258-1.854,2.736-1.846
		c11.477,0.06,22.955,0.082,34.432-0.019c1.815-0.017,2.625,0.502,3.287,2.204c3.595,9.224,9.69,16.135,19.009,19.934
		c0.813,0.331,1.648,0.598,2.669,0.967c-0.067-1.022-0.099-1.748-0.17-2.471c-0.705-7.102-1.451-14.199-2.114-21.308
		c-0.469-5.042-0.423-10.167-1.311-15.128c-2.381-13.277-2.857-26.525-0.877-39.888c1.467-9.904,3.888-19.479,8.628-28.369
		c0.161-0.301,0.243-0.643,0.425-1.132c-1.316-0.676-2.521-1.378-3.796-1.93c-2.574-1.116-5.222-2.065-7.763-3.243
		c-2.002-0.927-3.857-1.129-6.164-0.965c-9,0.64-17.096,4.325-25.329,6.781c-0.24,11.03-0.478,21.979-0.716,32.926
		c-0.147,0.013-0.295,0.025-0.444,0.038c-0.108-1.162-0.33-2.326-0.306-3.484c0.185-9.333,0.42-18.665,0.627-27.998
		c0.011-0.453-0.121-0.908-0.178-1.295C100.775,35.223,99.147,35.223,97.322,35.223z M147.414,34.729
		c-0.661,1.262-1.033,1.944-1.378,2.64c-3.572,7.206-5.89,14.796-7.151,22.742c-1.449,9.12-2.352,18.254-1.767,27.507
		c0.679,10.707,3.118,21.067,5.774,31.413c1.922,7.486,3.668,15.029,5.127,22.617c1.002,5.196,1.412,10.513,2.021,15.778
		c0.442,3.854,1.7,5.615,6.433,6.062c3.182,0.3,6.469,0.082,9.646-0.359c3.779-0.521,6.658-2.503,8-6.354
		c1.201-3.461,1.663-7.051,1.289-10.61c-0.821-7.873-1.717-15.755-3.033-23.558c-2.896-17.17-5.938-34.317-9.188-51.424
		c-1.875-9.868-5.438-19.224-10.231-28.059C151.438,40.324,149.445,37.778,147.414,34.729z M52.774,35.387
		c-0.268-0.073-0.535-0.146-0.801-0.22c-2.09,3.411-4.396,6.709-6.23,10.252c-6.289,12.152-9.463,25.305-11.77,38.667
		c-3.042,17.604-5.909,35.234-8.677,52.882c-0.837,5.343-1.51,10.763-0.46,16.198c0.835,4.32,2.327,8.139,7.094,9.521
		c4.36,1.264,8.785,1.383,13.213,0.513c2.306-0.452,4.059-1.728,4.445-4.253c0.501-3.252,0.945-6.51,1.398-9.771
		c0.626-4.521,0.936-9.112,1.922-13.554c1.831-8.27,3.934-16.48,6.144-24.66c3.207-11.877,4.68-23.962,3.958-36.205
		c-0.691-11.754-3.494-23.12-8.005-34.03C54.269,38.945,53.518,37.167,52.774,35.387z M103.186,168.468
		c5.076-0.487,12.857-1.083,20.594-2.034c4.777-0.588,9.486-1.724,13.793-4.041c2.261-1.221,4.396-2.74,4.544-5.549
		c0.218-4.168,0.169-8.351,0.114-12.527c-0.006-0.42-0.75-1.03-1.271-1.219c-9.681-3.465-16.535-9.975-20.487-19.391
		c-1.1-2.616-2.242-3.441-5.24-3.363c-10.778,0.273-21.569,0.055-32.356-0.022c-1.236-0.011-1.935,0.227-2.401,1.55
		c-3.729,10.584-10.94,17.665-21.59,21.27c-0.517,0.174-1.155,0.938-1.179,1.457c-0.167,3.426-0.257,6.855-0.226,10.281
		c0.028,3.174,1.391,5.706,4.312,7.102c2.189,1.047,4.443,2.047,6.771,2.694C78.991,167.578,89.728,167.982,103.186,168.468z
		 M59.618,161.52c0,1.604,0.089,2.94-0.025,4.265c-0.103,1.209,0.357,1.854,1.402,2.438c4.961,2.774,10.289,4.424,15.877,5.258
		c14.811,2.207,29.653,2.162,44.489,0.318c6.146-0.764,12.08-2.375,17.474-5.57c0.562-0.328,1.265-0.943,1.325-1.492
		c0.177-1.594,0.063-3.223,0.063-4.85c-2.229,1.004-4.214,2.062-6.309,2.805c-6.367,2.271-13.042,3.023-19.717,3.675
		c-10.543,1.021-21.085,0.827-31.592-0.427C74.749,166.998,66.858,166.044,59.618,161.52z M100.289,34.817
		c0.956-0.306,1.611-0.517,2.27-0.727c-0.225-0.51-0.567-1.005-0.638-1.535c-0.073-0.586-0.084-1.355,0.237-1.754
		c0.205-0.254,1.24-0.177,1.58,0.121c0.293,0.254,0.238,1.057,0.13,1.573c-0.104,0.497-0.478,0.937-0.729,1.401
		c0.105,0.123,0.213,0.245,0.32,0.368c1.827-0.557,3.652-1.113,5.479-1.672c4.367-1.336,8.69-2.809,13.104-3.955
		c2.401-0.624,4.957-0.622,7.419-1.037c2.284-0.386,2.84-1.829,1.545-3.438c-1.33-1.649-2.548-3.387-3.796-5.102
		c-0.774-1.066-1.462-2.196-2.278-3.229c-0.576-0.73-1.315-0.88-2.002-0.063c-2.352,2.811-5.58,4.033-8.977,4.956
		c-3.799,1.033-7.038,3.021-9.835,5.76C101.906,28.648,100.577,31.241,100.289,34.817z M73.27,18.366
		c-1.288,1.787-2.521,3.433-3.679,5.132c-0.549,0.805-1.549,2.106-1.298,2.488c0.541,0.816,1.73,1.577,2.714,1.664
		c6.93,0.617,13.521,2.462,19.957,4.994c1.326,0.522,2.72,0.878,4.529,1.453c-0.514-1.323-0.756-2.26-1.214-3.076
		c-1.46-2.593-3.677-4.417-6.377-5.54c-2.355-0.979-4.807-1.746-7.247-2.497C77.79,22.103,75.291,20.688,73.27,18.366z M99.56,34.67
		c-0.227-3.731-1.842-6.405-4.282-8.686c-2.87-2.681-6.228-4.478-10.005-5.48c-3.19-0.845-6.063-2.181-8.312-4.705
		c-0.293-0.328-1.158-0.531-1.526-0.343c-1.899,0.975-2.019,2.29-0.452,3.703c2.244,2.025,5,2.953,7.845,3.739
		c5.224,1.444,10.039,3.521,12.459,8.46c0.844-0.288,1.709-0.911,2.183-0.69c2.344,1.093-0.699,2.237-0.031,3.533
		C98.004,34.326,98.639,34.466,99.56,34.67z M43.809,164.663c-4.461-0.38-8.738-0.744-13.166-1.119
		c-0.105,1.245-0.311,2.871-0.334,4.502c-0.007,0.433,0.477,1.177,0.851,1.259c3.932,0.866,7.9,1.37,12.03,0.818
		C43.406,168.207,43.611,166.396,43.809,164.663z M156.711,170.145c4.209,0.482,8.174,0.033,12.098-0.838
		c0.338-0.076,0.815-0.637,0.805-0.961c-0.053-1.729-0.238-3.455-0.346-4.761c-4.563,0.365-8.828,0.709-13.154,1.058
		C156.297,166.328,156.493,168.13,156.711,170.145z M115.958,19.095c0.206,0.141,0.415,0.282,0.622,0.423
		c2.167-1.517,4.332-3.034,6.497-4.551c-0.062-0.229-0.124-0.459-0.187-0.688c-2.177-0.765-4.352-1.529-6.935-2.438
		C115.958,14.588,115.958,16.841,115.958,19.095z M76.814,14.358c2.023,2.465,4.111,4.146,7.026,4.826c0-2.435,0-4.711,0-7.347
		C81.264,12.761,79.133,13.526,76.814,14.358z"/>
</g>
</svg>
